<svg width="36" height="36" viewBox="0 0 36 36" fill="none" xmlns="http://www.w3.org/2000/svg">
<path d="M24.9231 15.2308C24.9231 12.5625 23.9748 10.28 22.0781 8.38341C20.1815 6.48678 17.899 5.53846 15.2308 5.53846C12.5625 5.53846 10.28 6.48678 8.38341 8.38341C6.48678 10.28 5.53846 12.5625 5.53846 15.2308C5.53846 17.899 6.48678 20.1815 8.38341 22.0781C10.28 23.9748 12.5625 24.9231 15.2308 24.9231C17.899 24.9231 20.1815 23.9748 22.0781 22.0781C23.9748 20.1815 24.9231 17.899 24.9231 15.2308ZM36 33.2308C36 33.9808 35.726 34.6298 35.1779 35.1779C34.6298 35.726 33.9808 36 33.2308 36C32.4519 36 31.8029 35.726 31.2837 35.1779L23.863 27.7788C21.2813 29.5673 18.4038 30.4615 15.2308 30.4615C13.1683 30.4615 11.1959 30.0613 9.3137 29.2608C7.43149 28.4603 5.80889 27.3786 4.44591 26.0156C3.08293 24.6526 2.0012 23.03 1.20072 21.1478C0.40024 19.2656 0 17.2933 0 15.2308C0 13.1683 0.40024 11.1959 1.20072 9.3137C2.0012 7.43149 3.08293 5.80889 4.44591 4.44591C5.80889 3.08293 7.43149 2.0012 9.3137 1.20072C11.1959 0.40024 13.1683 0 15.2308 0C17.2933 0 19.2656 0.40024 21.1478 1.20072C23.03 2.0012 24.6526 3.08293 26.0156 4.44591C27.3786 5.80889 28.4603 7.43149 29.2608 9.3137C30.0613 11.1959 30.4615 13.1683 30.4615 15.2308C30.4615 18.4038 29.5673 21.2813 27.7788 23.863L35.1995 31.2837C35.7332 31.8173 36 32.4663 36 33.2308Z" fill="#DADADA" fill-opacity="0.3"/>
</svg>
