<svg width="291" height="278" viewBox="0 0 291 278" fill="none" xmlns="http://www.w3.org/2000/svg">
<g clip-path="url(#clip0_841_561)">
<path d="M270.381 73.8192V58.2186H267.955V73.8192C267.259 74.1007 266.683 74.6154 266.325 75.2751C265.967 75.9349 265.85 76.6986 265.993 77.4354C266.137 78.1721 266.532 78.8361 267.111 79.3135C267.69 79.7909 268.417 80.0519 269.168 80.0519C269.919 80.0519 270.646 79.7909 271.225 79.3135C271.804 78.8361 272.199 78.1721 272.343 77.4354C272.486 76.6986 272.369 75.9349 272.011 75.2751C271.653 74.6154 271.077 74.1007 270.381 73.8192Z" fill="#E6E6E6"/>
<path d="M276.041 231.257H259.465V29.9179H252.996V231.257H236.42C234.455 231.257 232.51 231.644 230.695 232.396C228.88 233.148 227.231 234.25 225.842 235.639C224.453 237.028 223.351 238.677 222.6 240.492C221.848 242.307 221.461 244.252 221.461 246.216V246.216H291V246.216C291 244.252 290.613 242.307 289.861 240.492C289.109 238.677 288.008 237.028 286.619 235.639C285.229 234.25 283.58 233.148 281.765 232.396C279.951 231.644 278.005 231.257 276.041 231.257V231.257Z" fill="#E6E6E6"/>
<path d="M221.495 59.8358H290.966L286.718 6.73544C286.563 4.90443 285.728 3.19781 284.378 1.95134C283.028 0.704863 281.26 0.00876921 279.422 0H233.039C231.201 0.00877021 229.433 0.704863 228.083 1.95134C226.733 3.19781 225.898 4.90443 225.743 6.73544L221.495 59.8358Z" fill="#FF8F71"/>
<path d="M24.7017 184.98H236.746V163.331C236.746 104.871 189.185 57.309 130.724 57.309C72.2633 57.309 24.7017 104.871 24.7017 163.331V184.98Z" fill="#3F3D56"/>
<path opacity="0.2" d="M24.7017 184.98H236.746V163.331C236.746 104.871 189.185 57.309 130.724 57.309C72.2633 57.309 24.7017 104.871 24.7017 163.331V184.98Z" fill="black"/>
<path d="M52.1836 192.474H215.371C215.215 183.888 211.698 175.706 205.575 169.686C199.452 163.666 191.212 160.288 182.625 160.278H84.9291C76.3422 160.288 68.1018 163.666 61.9787 169.686C55.8556 175.706 52.3387 183.888 52.1836 192.474V192.474Z" fill="#FF8F71"/>
<path d="M32.7504 189.143C50.8379 189.143 65.5007 174.48 65.5007 156.393C65.5007 138.305 50.8379 123.642 32.7504 123.642C14.6628 123.642 0 138.305 0 156.393C0 174.48 14.6628 189.143 32.7504 189.143Z" fill="#3F3D56"/>
<path d="M231.473 189.143C249.561 189.143 264.223 174.48 264.223 156.393C264.223 138.305 249.561 123.642 231.473 123.642C213.385 123.642 198.723 138.305 198.723 156.393C198.723 174.48 213.385 189.143 231.473 189.143Z" fill="#3F3D56"/>
<path d="M206.771 173.045V185.257H55.509V173.045H21.6484V232.567C21.6484 236.214 23.0971 239.711 25.6759 242.29C28.2546 244.869 31.7521 246.317 35.3989 246.317H226.881C228.687 246.317 230.475 245.962 232.143 245.271C233.812 244.58 235.327 243.567 236.604 242.29C237.881 241.013 238.894 239.497 239.585 237.829C240.276 236.161 240.632 234.373 240.632 232.567V173.045H206.771Z" fill="#3F3D56"/>
<path opacity="0.2" d="M32.7504 163.054C36.4293 163.054 39.4115 160.072 39.4115 156.393C39.4115 152.714 36.4293 149.732 32.7504 149.732C29.0716 149.732 26.0894 152.714 26.0894 156.393C26.0894 160.072 29.0716 163.054 32.7504 163.054Z" fill="black"/>
<path opacity="0.2" d="M231.473 163.054C235.151 163.054 238.134 160.072 238.134 156.393C238.134 152.714 235.151 149.732 231.473 149.732C227.794 149.732 224.812 152.714 224.812 156.393C224.812 160.072 227.794 163.054 231.473 163.054Z" fill="black"/>
<path d="M142.788 53.5678C142.788 53.5678 143.443 66.0099 148.027 68.6293C152.611 71.2487 148.027 88.9295 148.027 88.9295L126.417 89.5844L125.107 68.6293C125.107 68.6293 127.727 60.1163 126.417 56.1872C125.107 52.2581 142.788 53.5678 142.788 53.5678Z" fill="#FFB8B8"/>
<path d="M167.018 226.447L159.16 235.615L171.602 247.402L178.15 234.305L167.018 226.447Z" fill="#FFB8B8"/>
<path d="M111.356 226.447L119.214 235.615L106.772 247.402L100.224 234.305L111.356 226.447Z" fill="#FFB8B8"/>
<path d="M162.761 139.68C162.761 139.68 209.91 155.396 207.291 170.458C204.671 185.519 184.371 238.562 184.371 238.562C184.371 238.562 173.239 238.562 164.726 226.775L170.619 213.678C170.619 213.678 168 206.474 172.584 205.165C177.168 203.855 179.787 180.935 179.787 180.935C179.787 180.935 146.39 178.316 139.187 165.874L126.09 134.441L162.761 139.68Z" fill="#2F2E41"/>
<path d="M115.612 139.68C115.612 139.68 68.4634 155.396 71.0828 170.458C73.7021 185.519 94.0024 238.562 94.0024 238.562C94.0024 238.562 105.135 238.562 113.648 226.775L107.754 213.678C107.754 213.678 110.374 206.474 105.79 205.165C101.206 203.855 98.5863 180.935 98.5863 180.935C98.5863 180.935 131.983 178.316 139.187 165.874L152.284 134.441L115.612 139.68Z" fill="#2F2E41"/>
<path d="M169.31 242.491C169.31 242.491 175.858 236.597 176.513 241.181C177.168 245.765 175.858 264.101 175.858 264.101C175.858 264.101 182.407 277.853 172.584 277.853C162.761 277.853 158.177 267.375 159.487 256.897C160.797 246.42 154.903 242.491 154.903 242.491C154.903 242.491 147.7 228.084 154.903 226.775C162.106 225.465 164.726 228.739 164.726 228.739C164.726 228.739 162.106 240.526 169.31 242.491Z" fill="#2F2E41"/>
<path d="M109.064 242.491C109.064 242.491 102.515 236.597 101.86 241.181C101.206 245.765 102.515 264.101 102.515 264.101C102.515 264.101 95.9668 277.853 105.789 277.853C115.612 277.853 120.196 267.375 118.886 256.897C117.577 246.42 123.47 242.491 123.47 242.491C123.47 242.491 130.674 228.084 123.47 226.775C116.267 225.465 113.648 228.739 113.648 228.739C113.648 228.739 116.267 240.526 109.064 242.491Z" fill="#2F2E41"/>
<path d="M132.639 61.0986C140.957 61.0986 147.7 54.3553 147.7 46.0371C147.7 37.7189 140.957 30.9756 132.639 30.9756C124.32 30.9756 117.577 37.7189 117.577 46.0371C117.577 54.3553 124.32 61.0986 132.639 61.0986Z" fill="#FFB8B8"/>
<path d="M134.93 71.9035L125.762 64.7002L103.498 75.1777L102.843 134.769C102.843 134.769 89.0909 141.317 93.02 149.83C93.02 149.83 104.807 152.45 110.046 157.688C115.285 162.927 144.753 155.724 157.195 151.795C169.637 147.866 172.911 143.282 172.911 143.282L160.469 125.601L167.672 80.4165L145.41 65.449L134.93 71.9035Z" fill="#E6E6E6"/>
<path d="M150.949 35.7859C150.621 35.3406 150.321 34.8752 150.051 34.3923C149.584 33.2549 150.322 31.9145 149.633 30.8524C148.929 29.7682 147.143 29.5395 145.928 28.803C144.055 27.6683 143.715 25.4418 141.961 24.1914C140.697 23.2904 138.895 23.0476 137.206 23.099C135.517 23.1504 133.85 23.4557 132.161 23.4892C129.88 23.5401 127.617 23.0774 125.539 22.1352L126.786 24.5734C125.401 24.2715 124.078 23.7352 122.873 22.9875C122.322 23.6713 123.33 24.7092 122.705 25.3506C122.449 25.5575 122.145 25.6981 121.822 25.7601C119.418 26.4432 117.154 27.5477 115.136 29.022C114.669 29.3192 114.282 29.7272 114.011 30.2098C113.686 30.9298 113.974 31.725 113.949 32.4906C113.905 33.8816 112.843 35.0947 112.089 36.3478C111.335 37.6009 110.928 39.2256 112.046 40.2891C112.318 40.5052 112.579 40.735 112.827 40.9778C113.947 42.2987 111.965 44.2332 112.92 45.6349C113.335 46.2435 114.185 46.5515 114.924 46.9111C116.34 47.5729 117.531 48.6343 118.35 49.9646L117.776 45.7485C117.746 45.6443 117.74 45.5345 117.76 45.4279C117.78 45.3213 117.825 45.2207 117.89 45.1344C118.169 44.8508 118.751 44.9639 119.135 44.7761C119.558 44.5695 119.59 44.0955 119.573 43.6985L119.444 40.6375C119.385 39.261 119.369 39.0783 120.383 37.9672C121.091 37.191 122.205 36.7227 123.324 36.3782C125.882 35.5912 128.632 35.3189 131.351 35.0529C134.508 34.7439 138.063 33.212 140.515 34.8385C142.522 36.1699 143.189 38.3584 144.156 40.2993C145.026 42.0438 147.256 47.1804 149.114 44.4C150.28 42.6538 152.064 37.7301 150.949 35.7859Z" fill="#2F2E41"/>
<path d="M135.224 41.668C135.162 41.668 135.102 41.6927 135.058 41.7365C135.015 41.7804 134.99 41.8399 134.99 41.9019V48.2078C134.99 48.2698 135.015 48.3293 135.058 48.3731C135.102 48.417 135.162 48.4417 135.224 48.4417H146.079C146.141 48.4417 146.201 48.417 146.244 48.3731C146.288 48.3293 146.313 48.2698 146.313 48.2078V41.9019C146.313 41.8399 146.288 41.7804 146.244 41.7365C146.201 41.6927 146.141 41.668 146.079 41.668L135.224 41.668Z" fill="#3F3D56"/>
<path d="M136.437 42.2241C136.321 42.2242 136.211 42.2702 136.129 42.3519C136.047 42.4337 136.001 42.5445 136.001 42.6601V47.4495C136.001 47.5651 136.047 47.676 136.129 47.7577C136.211 47.8395 136.321 47.8855 136.437 47.8856H144.866C144.982 47.8855 145.093 47.8395 145.174 47.7577C145.256 47.676 145.302 47.5651 145.302 47.4495V42.6601C145.302 42.5445 145.256 42.4337 145.174 42.3519C145.093 42.2702 144.982 42.2242 144.866 42.2241H136.437Z" fill="#FF6584"/>
<path d="M135.346 43.7451H129.691V45.0548H135.346V43.7451Z" fill="#3F3D56"/>
<path d="M119.852 41.668C119.79 41.6681 119.731 41.6928 119.687 41.7366C119.643 41.7804 119.618 41.8399 119.618 41.9019V48.2078C119.618 48.2698 119.643 48.3292 119.687 48.3731C119.731 48.4169 119.79 48.4416 119.852 48.4417H130.707C130.769 48.4416 130.829 48.4169 130.873 48.3731C130.917 48.3292 130.941 48.2698 130.941 48.2078V41.9019C130.941 41.8399 130.917 41.7804 130.873 41.7366C130.829 41.6927 130.769 41.6681 130.707 41.668L119.852 41.668Z" fill="#3F3D56"/>
<path d="M121.066 42.2241C120.95 42.2242 120.839 42.2701 120.757 42.3519C120.676 42.4336 120.63 42.5445 120.629 42.6601V47.4495C120.63 47.5652 120.676 47.676 120.757 47.7578C120.839 47.8395 120.95 47.8855 121.066 47.8856H129.494C129.61 47.8855 129.721 47.8395 129.803 47.7578C129.885 47.676 129.931 47.5652 129.931 47.4495V42.6601C129.931 42.5445 129.885 42.4336 129.803 42.3519C129.721 42.2701 129.61 42.2242 129.494 42.2241H121.066Z" fill="#FF8F71"/>
<path d="M113.918 120.379H151.518C153.019 120.379 154.459 120.975 155.52 122.037C156.582 123.098 157.178 124.538 157.178 126.039V126.039H108.258C108.258 124.538 108.855 123.098 109.916 122.037C110.978 120.975 112.417 120.379 113.918 120.379V120.379Z" fill="#3F3D56"/>
<path d="M154.146 119.975C153.926 119.976 153.707 120.013 153.499 120.085C153.428 119.798 153.254 119.547 153.01 119.379C152.767 119.212 152.47 119.139 152.176 119.175C151.883 119.212 151.612 119.354 151.417 119.576C151.221 119.798 151.113 120.083 151.114 120.379C151.114 120.385 151.115 120.391 151.115 120.397C150.964 120.411 150.814 120.442 150.669 120.489C150.628 120.326 150.554 120.173 150.451 120.04C150.347 119.907 150.218 119.797 150.07 119.717C150.458 119.502 150.766 119.165 150.945 118.759C151.172 118.782 151.401 118.756 151.618 118.684C151.835 118.612 152.034 118.495 152.203 118.341C152.371 118.187 152.505 117.999 152.596 117.789C152.687 117.58 152.733 117.353 152.731 117.125C152.728 116.896 152.678 116.671 152.583 116.463C152.487 116.256 152.35 116.071 152.178 115.92C152.006 115.769 151.805 115.656 151.587 115.589C151.368 115.521 151.138 115.5 150.912 115.528C150.691 115.529 150.473 115.566 150.265 115.638C150.228 115.479 150.159 115.329 150.062 115.197C149.965 115.066 149.842 114.955 149.702 114.872C149.561 114.79 149.405 114.736 149.243 114.715C149.081 114.694 148.916 114.706 148.759 114.751C148.602 114.795 148.456 114.871 148.329 114.974C148.202 115.076 148.097 115.204 148.02 115.348C147.944 115.492 147.897 115.65 147.883 115.813C147.87 115.976 147.889 116.14 147.941 116.295C147.892 116.328 147.847 116.366 147.802 116.404C147.573 116.207 147.276 116.108 146.975 116.128C146.82 115.682 146.512 115.304 146.106 115.062C145.7 114.82 145.222 114.728 144.755 114.802C144.289 114.877 143.863 115.114 143.553 115.471C143.243 115.828 143.069 116.283 143.061 116.755C142.898 116.768 142.738 116.8 142.583 116.851C142.566 116.782 142.543 116.715 142.514 116.651C142.673 116.51 142.801 116.337 142.89 116.144C142.979 115.95 143.026 115.74 143.028 115.528C142.999 115.072 142.792 114.647 142.451 114.344C142.111 114.041 141.664 113.885 141.208 113.91C140.988 113.911 140.77 113.949 140.562 114.02C140.525 113.862 140.455 113.712 140.359 113.58C140.262 113.449 140.139 113.338 139.999 113.255C139.858 113.172 139.702 113.119 139.54 113.098C139.378 113.077 139.213 113.089 139.056 113.134C138.899 113.178 138.753 113.254 138.625 113.356C138.498 113.459 138.393 113.586 138.317 113.731C138.24 113.875 138.194 114.033 138.18 114.196C138.167 114.359 138.186 114.522 138.238 114.677C137.983 114.854 137.773 115.087 137.623 115.359C137.473 115.63 137.388 115.932 137.374 116.242C137.356 116.257 137.337 116.269 137.321 116.285C137.351 116.17 137.367 116.051 137.368 115.932C137.339 115.477 137.132 115.051 136.791 114.748C136.45 114.445 136.004 114.289 135.548 114.315C135.328 114.316 135.11 114.353 134.902 114.425C134.864 114.266 134.795 114.116 134.698 113.985C134.602 113.853 134.479 113.742 134.338 113.66C134.198 113.577 134.042 113.523 133.88 113.502C133.718 113.481 133.553 113.493 133.396 113.538C133.239 113.582 133.092 113.658 132.965 113.761C132.838 113.863 132.733 113.991 132.657 114.135C132.58 114.279 132.534 114.437 132.52 114.6C132.507 114.763 132.526 114.927 132.577 115.082C132.309 115.267 132.09 115.515 131.938 115.804C131.787 116.093 131.707 116.414 131.707 116.74C131.707 117.067 131.787 117.388 131.938 117.677C132.09 117.966 132.309 118.214 132.577 118.399C132.496 118.634 132.496 118.89 132.577 119.125C132.375 119.266 132.2 119.443 132.06 119.647C131.985 119.375 131.818 119.139 131.587 118.978C131.355 118.817 131.075 118.742 130.794 118.766C130.514 118.791 130.251 118.912 130.05 119.111C129.85 119.309 129.726 119.571 129.698 119.851C129.536 119.756 129.361 119.685 129.179 119.641C129.506 119.425 129.764 119.119 129.921 118.759C130.149 118.782 130.378 118.756 130.595 118.684C130.812 118.612 131.011 118.495 131.179 118.341C131.348 118.187 131.482 117.999 131.573 117.789C131.664 117.58 131.71 117.353 131.707 117.125C131.705 116.896 131.655 116.671 131.559 116.463C131.464 116.256 131.326 116.071 131.154 115.92C130.983 115.769 130.781 115.656 130.563 115.589C130.345 115.521 130.115 115.5 129.888 115.528C129.668 115.529 129.45 115.566 129.242 115.638C129.204 115.479 129.135 115.329 129.038 115.197C128.941 115.066 128.819 114.955 128.678 114.872C128.538 114.79 128.381 114.736 128.22 114.715C128.058 114.694 127.893 114.706 127.736 114.751C127.579 114.795 127.432 114.871 127.305 114.974C127.178 115.076 127.073 115.204 126.997 115.348C126.92 115.492 126.874 115.65 126.86 115.813C126.846 115.976 126.866 116.14 126.917 116.295C126.891 116.313 126.868 116.334 126.843 116.353C126.78 116.347 126.719 116.336 126.654 116.336C126.434 116.337 126.215 116.374 126.007 116.446C126 116.416 125.987 116.387 125.977 116.358C126.016 116.178 126.013 115.991 125.968 115.813C125.923 115.634 125.837 115.468 125.717 115.329C125.597 115.189 125.446 115.079 125.277 115.007C125.107 114.936 124.923 114.904 124.739 114.916C124.634 114.622 124.462 114.358 124.237 114.142C124.013 113.926 123.741 113.765 123.444 113.672C123.147 113.578 122.832 113.555 122.525 113.603C122.217 113.651 121.924 113.77 121.67 113.951C121.416 114.131 121.207 114.367 121.06 114.642C120.912 114.916 120.83 115.221 120.82 115.532C120.81 115.843 120.872 116.153 121.001 116.436C121.13 116.72 121.323 116.969 121.565 117.166C121.426 117.182 121.289 117.212 121.156 117.255C121.108 117.058 121.011 116.876 120.874 116.726C120.737 116.577 120.564 116.464 120.372 116.399C120.18 116.334 119.975 116.319 119.775 116.355C119.575 116.391 119.388 116.477 119.23 116.605C119.05 116.391 118.825 116.219 118.57 116.103C118.316 115.987 118.039 115.928 117.759 115.932C117.539 115.933 117.321 115.97 117.113 116.042C117.075 115.883 117.006 115.733 116.909 115.602C116.813 115.47 116.69 115.36 116.549 115.277C116.409 115.194 116.253 115.14 116.091 115.119C115.929 115.099 115.764 115.111 115.607 115.155C115.45 115.2 115.303 115.275 115.176 115.378C115.049 115.481 114.944 115.608 114.868 115.752C114.791 115.896 114.745 116.055 114.731 116.217C114.718 116.38 114.737 116.544 114.788 116.699C114.52 116.884 114.301 117.132 114.149 117.421C113.998 117.71 113.918 118.031 113.918 118.358C113.918 118.364 113.92 118.37 113.92 118.376C113.634 118.332 113.341 118.364 113.07 118.468C113.032 118.309 112.963 118.159 112.866 118.027C112.77 117.896 112.647 117.785 112.506 117.703C112.366 117.62 112.21 117.566 112.048 117.545C111.886 117.524 111.721 117.536 111.564 117.581C111.407 117.625 111.26 117.701 111.133 117.804C111.006 117.906 110.901 118.034 110.825 118.178C110.748 118.322 110.702 118.48 110.688 118.643C110.675 118.806 110.694 118.97 110.745 119.125C110.356 119.389 110.07 119.781 109.94 120.233C109.809 120.686 109.841 121.17 110.03 121.601C110.22 122.032 110.554 122.383 110.975 122.593C111.397 122.804 111.878 122.859 112.337 122.751C112.41 123.173 112.615 123.561 112.923 123.858C113.231 124.155 113.626 124.346 114.05 124.404C114.474 124.461 114.906 124.382 115.282 124.178C115.658 123.974 115.96 123.655 116.143 123.268C117.599 123.458 119.077 123.391 120.51 123.071C120.644 123.454 120.89 123.788 121.216 124.029C121.543 124.27 121.934 124.406 122.339 124.421C122.745 124.435 123.145 124.327 123.488 124.111C123.831 123.894 124.1 123.579 124.261 123.206C124.556 123.2 124.846 123.129 125.109 122.996C125.294 123.323 125.565 123.591 125.894 123.771C126.223 123.95 126.595 124.035 126.969 124.015C127.343 123.995 127.704 123.87 128.011 123.656C128.319 123.442 128.56 123.146 128.708 122.802C129.158 122.717 129.623 122.792 130.023 123.014C130.424 123.236 130.733 123.591 130.899 124.018C131.169 123.648 131.517 123.341 131.918 123.119C132.319 122.897 132.764 122.765 133.221 122.733C133.627 122.846 134.059 122.826 134.453 122.675C134.847 122.525 135.183 122.252 135.41 121.897C135.283 122.389 135.346 122.911 135.587 123.359C135.828 123.807 136.229 124.147 136.71 124.312C137.191 124.478 137.716 124.456 138.181 124.251C138.647 124.046 139.018 123.673 139.22 123.206C139.515 123.2 139.805 123.129 140.068 122.996C140.252 123.323 140.524 123.591 140.853 123.771C141.182 123.95 141.554 124.035 141.928 124.015C142.302 123.995 142.663 123.87 142.97 123.656C143.278 123.442 143.519 123.146 143.667 122.802C143.962 122.796 144.252 122.724 144.515 122.592C144.657 122.845 144.853 123.065 145.089 123.235C145.324 123.405 145.594 123.522 145.879 123.577C146.164 123.632 146.458 123.625 146.74 123.555C147.022 123.485 147.286 123.355 147.512 123.173C147.582 123.56 147.764 123.917 148.035 124.202C148.306 124.487 148.655 124.686 149.038 124.774C149.421 124.863 149.821 124.838 150.19 124.702C150.559 124.566 150.88 124.324 151.113 124.008C151.355 124.194 151.637 124.322 151.937 124.382C152.237 124.443 152.546 124.434 152.842 124.357C153.138 124.279 153.412 124.136 153.644 123.936C153.875 123.737 154.058 123.487 154.179 123.206C154.406 123.229 154.636 123.203 154.853 123.131C155.069 123.059 155.268 122.942 155.437 122.788C155.605 122.634 155.74 122.446 155.831 122.236C155.922 122.027 155.967 121.8 155.965 121.572C155.963 121.344 155.912 121.118 155.817 120.911C155.722 120.703 155.584 120.518 155.412 120.367C155.241 120.217 155.039 120.104 154.821 120.036C154.603 119.968 154.373 119.948 154.146 119.975L154.146 119.975ZM118.011 119.14C118.009 119.15 118.007 119.16 118.005 119.17C117.99 119.169 117.976 119.166 117.961 119.166C117.901 119.168 117.841 119.174 117.781 119.184C117.785 119.177 117.789 119.171 117.792 119.163C117.865 119.16 117.938 119.152 118.011 119.14V119.14ZM134.902 118.468C134.896 118.444 134.886 118.423 134.879 118.4C135.187 118.186 135.431 117.89 135.581 117.546C135.847 117.545 136.11 117.487 136.352 117.378C136.594 117.268 136.811 117.108 136.987 116.91C136.972 116.987 136.964 117.066 136.963 117.145C136.965 117.268 136.986 117.391 137.025 117.508C136.678 117.75 136.415 118.094 136.273 118.493C135.834 118.322 135.347 118.313 134.902 118.468V118.468ZM147.011 118.618C147.01 118.594 147.013 118.568 147.011 118.544C147.063 118.543 147.114 118.54 147.165 118.533C147.244 118.795 147.375 119.037 147.55 119.247C147.512 119.257 147.472 119.264 147.435 119.276C147.37 119.016 147.221 118.785 147.011 118.618V118.618Z" fill="#F9A825"/>
<path d="M112.331 122.401C111.757 122.401 111.19 122.517 110.663 122.744C110.136 122.97 109.661 123.302 109.267 123.718C108.872 124.134 108.567 124.627 108.369 125.165C108.171 125.703 108.085 126.276 108.115 126.849L110.853 164.495C110.911 165.574 111.38 166.59 112.164 167.333C112.949 168.076 113.988 168.491 115.069 168.49H150.368C151.448 168.491 152.488 168.076 153.272 167.333C154.056 166.59 154.526 165.574 154.583 164.495L157.321 126.849C157.352 126.276 157.266 125.703 157.068 125.165C156.87 124.627 156.564 124.134 156.17 123.718C155.775 123.302 155.3 122.97 154.773 122.744C154.247 122.517 153.679 122.401 153.106 122.401H112.331Z" fill="#3F3D56"/>
<path d="M116.749 122.401H114.323V168.49H116.749V122.401Z" fill="#FF8F71"/>
<path d="M123.622 122.401H121.196V168.49H123.622V122.401Z" fill="#FF8F71"/>
<path d="M130.495 122.401H128.069V168.49H130.495V122.401Z" fill="#FF8F71"/>
<path d="M137.368 122.401H134.942V168.49H137.368V122.401Z" fill="#FF8F71"/>
<path d="M144.241 122.401H141.815V168.49H144.241V122.401Z" fill="#FF8F71"/>
<path d="M151.114 122.401H148.688V168.49H151.114V122.401Z" fill="#FF8F71"/>
<path d="M148.682 145.246L140.824 149.83C140.824 149.83 121.834 165.546 134.93 168.166C148.027 170.785 151.302 157.033 151.302 157.033L155.886 151.795L148.682 145.246Z" fill="#FFB8B8"/>
<path d="M111.356 141.972L119.214 146.556C119.214 146.556 138.204 162.272 125.107 164.892C112.011 167.511 108.736 153.759 108.736 153.759L104.152 148.52L111.356 141.972Z" fill="#FFB8B8"/>
<path d="M159.16 79.7617L167.673 80.4165C167.673 80.4165 174.221 86.3101 173.566 94.1683C173.566 94.1683 179.46 111.194 178.15 118.398C178.15 118.398 179.46 130.185 177.495 134.769C175.531 139.353 159.16 157.033 159.16 157.033C159.16 157.033 144.098 145.246 144.753 144.591L164.399 124.946L154.576 111.849L159.16 79.7617Z" fill="#E6E6E6"/>
<path d="M103.498 75.1777L103.17 75.5052C103.17 75.5052 88.4363 81.7262 89.0912 89.5843C89.0912 89.5843 83.1975 106.61 84.5072 113.814C84.5072 113.814 83.1976 125.601 85.1621 130.185C87.1266 134.769 103.498 152.45 103.498 152.45C103.498 152.45 118.559 140.662 117.904 140.007L98.259 120.362L108.082 107.265L103.498 75.1777Z" fill="#E6E6E6"/>
</g>
<defs>
<clipPath id="clip0_841_561">
<rect width="291" height="277.853" fill="white"/>
</clipPath>
</defs>
</svg>
