<svg width="291" height="253" viewBox="0 0 291 253" fill="none" xmlns="http://www.w3.org/2000/svg">
<g clip-path="url(#clip0_841_459)">
<path d="M28.823 233.46C26.1716 242.317 30.2865 251.372 30.2865 251.372C30.2865 251.372 38.6999 246.067 41.3512 237.211C44.0026 228.354 39.8878 219.299 39.8878 219.299C39.8878 219.299 31.4743 224.604 28.823 233.46Z" fill="#F2F2F2"/>
<path d="M32.8483 233.7C35.0797 242.672 30.5432 251.523 30.5432 251.523C30.5432 251.523 22.3887 245.828 20.1573 236.857C17.9258 227.885 22.4624 219.034 22.4624 219.034C22.4624 219.034 30.6168 224.728 32.8483 233.7Z" fill="#F2F2F2"/>
<path d="M165.458 242.609L167.145 238.267L151.205 229.692L148.714 236.099L165.458 242.609Z" fill="#FFB8B8"/>
<path d="M174.5 231.284C173.784 231.006 173.021 230.871 172.254 230.887C171.486 230.904 170.729 231.072 170.027 231.381C169.324 231.69 168.689 232.135 168.159 232.69C167.628 233.245 167.212 233.899 166.934 234.614L165.796 237.541L164.04 242.058L163.611 243.165L169.236 245.353L174.677 231.354L174.5 231.284Z" fill="#2F2E41"/>
<path d="M164.041 234.254L163.307 236.201L161.475 241.059L161.431 241.18C156.764 241.78 151.648 240.604 146.916 238.778C145.022 238.048 143.168 237.22 141.36 236.299C138.684 234.947 136.288 233.52 134.376 232.299C131.498 230.452 129.718 229.065 129.718 229.065C129.718 229.065 129.248 229.49 128.398 230.218C127.257 231.194 125.435 232.718 123.127 234.511C122.247 235.2 121.302 235.92 120.291 236.673C112.845 242.196 103.289 227.458 103.289 227.458C103.289 227.458 105.977 225.747 106.679 225.415C108.94 224.345 114.251 221.821 118.833 219.578C121.194 218.421 123.359 217.336 124.812 216.565C129.958 213.825 136.355 219.009 136.355 219.009L164.041 234.254Z" fill="#2F2E41"/>
<path opacity="0.14" d="M164.041 234.254L163.307 236.201L161.475 241.059L161.431 241.18C156.764 241.78 151.648 240.604 146.916 238.778C145.022 238.048 143.168 237.22 141.36 236.299C138.684 234.947 136.288 233.52 134.376 232.299C131.498 230.452 129.718 229.065 129.718 229.065C129.718 229.065 129.248 229.49 128.398 230.218C127.257 231.194 125.435 232.718 123.127 234.511C122.247 235.2 121.302 235.92 120.291 236.673C112.845 242.196 103.289 227.458 103.289 227.458C103.289 227.458 105.977 225.747 106.679 225.415C108.94 224.345 114.251 221.821 118.833 219.578C121.194 218.421 123.359 217.336 124.812 216.565C129.958 213.825 136.355 219.009 136.355 219.009L164.041 234.254Z" fill="black"/>
<path d="M69.7407 130.921C105.894 130.921 135.201 101.613 135.201 65.4605C135.201 29.3076 105.894 0 69.7407 0C33.5879 0 4.28027 29.3076 4.28027 65.4605C4.28027 101.613 33.5879 130.921 69.7407 130.921Z" fill="#FF8F71"/>
<path opacity="0.2" d="M21.4069 21.738C15.3009 36.021 14.4726 52.0098 19.0699 66.8473C23.6673 81.6848 33.3908 94.4041 46.5029 102.732C59.6149 111.061 75.2612 114.455 90.6457 112.31C106.03 110.164 120.15 102.618 130.483 91.0194C126.753 99.7457 121.171 107.557 114.122 113.911C107.074 120.266 98.7281 125.012 89.6632 127.821C80.5984 130.63 71.0312 131.435 61.6246 130.179C52.218 128.924 43.1967 125.638 35.186 120.55C27.1752 115.462 20.3665 108.693 15.2314 100.712C10.0964 92.731 6.7579 83.7292 5.44721 74.3301C4.13652 64.931 4.88499 55.3593 7.64077 46.2781C10.3965 37.197 15.0937 28.8236 21.4069 21.738Z" fill="black"/>
<path d="M69.9207 65.4602H70.1008L73.3378 251.051H66.5039L69.9207 65.4602Z" fill="#3F3D56"/>
<path d="M59.844 149.63L58.3359 152.495L69.1568 158.192L70.6648 155.327L59.844 149.63Z" fill="#3F3D56"/>
<path d="M290.62 251.79H0.379896C0.279141 251.79 0.182513 251.75 0.111269 251.679C0.0400243 251.608 0 251.511 0 251.41C0 251.31 0.0400243 251.213 0.111269 251.142C0.182513 251.07 0.279141 251.03 0.379896 251.03H290.62C290.721 251.03 290.817 251.07 290.889 251.142C290.96 251.213 291 251.31 291 251.41C291 251.511 290.96 251.608 290.889 251.679C290.817 251.75 290.721 251.79 290.62 251.79Z" fill="#3F3D56"/>
<path d="M89.5589 193.396H67.525C67.0717 193.395 66.6372 193.215 66.3167 192.895C65.9962 192.574 65.8159 192.14 65.8154 191.686V182.189C65.8154 178.814 67.1563 175.577 69.5429 173.19C71.9296 170.803 75.1667 169.462 78.5419 169.462C81.9172 169.462 85.1542 170.803 87.5409 173.19C89.9276 175.577 91.2684 178.814 91.2684 182.189V191.686C91.2679 192.14 91.0876 192.574 90.7672 192.895C90.4467 193.215 90.0121 193.395 89.5589 193.396Z" fill="#2F2E41"/>
<path d="M110.513 205.325C110 205.415 109.513 205.617 109.086 205.915C108.66 206.214 108.304 206.603 108.043 207.054C107.783 207.505 107.625 208.007 107.58 208.526C107.535 209.045 107.604 209.568 107.783 210.057L101.792 215.567L104.252 220.025L112.604 212.124C113.406 211.769 114.05 211.133 114.414 210.335C114.778 209.537 114.836 208.634 114.578 207.796C114.32 206.958 113.764 206.243 113.015 205.788C112.266 205.333 111.375 205.168 110.513 205.325Z" fill="#FFB8B8"/>
<path d="M92.4847 230.38C92.2141 230.38 91.9431 230.368 91.6716 230.345C90.0553 230.21 88.4998 229.667 87.1511 228.766C85.8023 227.865 84.7045 226.637 83.9607 225.195L74.3617 206.72C73.7327 205.509 73.5947 204.103 73.9762 202.793C74.3578 201.483 75.2297 200.371 76.4105 199.688C77.5912 199.004 78.99 198.803 80.3158 199.124C81.6415 199.446 82.7923 200.266 83.5286 201.415L92.3842 221.285L104.434 211.494L111.411 214.21L99.6284 227.218C98.7226 228.213 97.6196 229.007 96.3896 229.552C95.1597 230.096 93.8298 230.378 92.4847 230.38V230.38Z" fill="#CCCCCC"/>
<path d="M127.992 201.833L117.316 191.157C116.943 190.784 116.436 190.574 115.908 190.574C115.38 190.574 114.873 190.784 114.5 191.157L104.896 200.761C104.523 201.134 104.313 201.641 104.313 202.169C104.313 202.697 104.523 203.204 104.896 203.577L114.871 213.552C115.227 213.907 115.704 214.115 116.207 214.134C116.709 214.152 117.2 213.979 117.581 213.651L127.886 204.748C128.084 204.577 128.246 204.369 128.363 204.135C128.481 203.901 128.551 203.647 128.57 203.386C128.589 203.125 128.556 202.863 128.474 202.615C128.392 202.367 128.262 202.137 128.091 201.939C128.059 201.902 128.026 201.867 127.992 201.833Z" fill="#3F3D56"/>
<path d="M126.481 203.705L115.492 192.716L106.423 201.785L116.986 212.347L126.481 203.705Z" fill="#F2F2F2"/>
<path d="M116.271 206.903C118.735 206.903 120.733 204.905 120.733 202.441C120.733 199.976 118.735 197.979 116.271 197.979C113.806 197.979 111.809 199.976 111.809 202.441C111.809 204.905 113.806 206.903 116.271 206.903Z" fill="#FF8F71"/>
<path opacity="0.1" d="M118.257 206.244C119.004 205.543 119.486 204.606 119.623 203.591C119.761 202.576 119.545 201.545 119.012 200.67C118.479 199.795 117.661 199.131 116.696 198.788C115.731 198.445 114.677 198.444 113.711 198.786C114.233 198.421 114.827 198.171 115.453 198.055C116.079 197.938 116.722 197.956 117.341 198.109C117.959 198.262 118.537 198.545 119.037 198.94C119.537 199.334 119.946 199.832 120.238 200.398C120.529 200.964 120.696 201.586 120.728 202.222C120.759 202.858 120.654 203.493 120.419 204.085C120.185 204.677 119.826 205.212 119.368 205.654C118.909 206.096 118.361 206.434 117.761 206.647C117.936 206.525 118.101 206.39 118.257 206.244Z" fill="black"/>
<path d="M114.077 201.554C113.545 202.054 113.517 203.854 114.329 204.719C115.142 205.584 116.487 205.186 117.019 204.686C117.552 204.186 117.069 203.773 116.256 202.908C115.444 202.043 114.609 201.054 114.077 201.554Z" fill="#F2F2F2"/>
<path d="M118.606 203.836C119.337 203.836 119.928 203.244 119.928 202.514C119.928 201.783 119.337 201.191 118.606 201.191C117.876 201.191 117.284 201.783 117.284 202.514C117.284 203.244 117.876 203.836 118.606 203.836Z" fill="#2F2E41"/>
<path d="M116.23 201.307C116.961 201.307 117.553 200.715 117.553 199.984C117.553 199.254 116.961 198.662 116.23 198.662C115.5 198.662 114.908 199.254 114.908 199.984C114.908 200.715 115.5 201.307 116.23 201.307Z" fill="#2F2E41"/>
<path d="M118.607 202.844C118.789 202.844 118.937 202.696 118.937 202.514C118.937 202.331 118.789 202.183 118.607 202.183C118.424 202.183 118.276 202.331 118.276 202.514C118.276 202.696 118.424 202.844 118.607 202.844Z" fill="#F2F2F2"/>
<path d="M118.749 201.865C118.841 201.865 118.915 201.791 118.915 201.7C118.915 201.608 118.841 201.534 118.749 201.534C118.658 201.534 118.584 201.608 118.584 201.7C118.584 201.791 118.658 201.865 118.749 201.865Z" fill="#F2F2F2"/>
<path d="M116.372 199.336C116.464 199.336 116.538 199.262 116.538 199.17C116.538 199.079 116.464 199.005 116.372 199.005C116.281 199.005 116.207 199.079 116.207 199.17C116.207 199.262 116.281 199.336 116.372 199.336Z" fill="#F2F2F2"/>
<path d="M116.23 200.315C116.412 200.315 116.56 200.167 116.56 199.984C116.56 199.802 116.412 199.654 116.23 199.654C116.047 199.654 115.899 199.802 115.899 199.984C115.899 200.167 116.047 200.315 116.23 200.315Z" fill="#F2F2F2"/>
<path d="M164.111 248.714L166.127 244.516L150.893 234.741L147.917 240.937L164.111 248.714Z" fill="#FFB8B8"/>
<path d="M173.997 238.118C173.305 237.785 172.555 237.592 171.788 237.55C171.022 237.507 170.254 237.616 169.53 237.871C168.806 238.125 168.138 238.52 167.567 239.032C166.995 239.545 166.53 240.165 166.198 240.857L164.838 243.687L162.741 248.056L162.228 249.127L167.668 251.741L174.168 238.201L173.997 238.118Z" fill="#2F2E41"/>
<path d="M163.341 240.276L162.46 242.16L160.26 246.863L160.207 246.981C155.508 247.22 150.497 245.655 145.919 243.47C144.087 242.597 142.302 241.629 140.57 240.572C138.006 239.018 135.726 237.411 133.914 236.047C131.187 233.984 129.519 232.465 129.519 232.465C129.519 232.465 129.017 232.852 128.113 233.513C126.901 234.399 124.968 235.778 122.529 237.388C121.598 238.008 120.6 238.653 119.535 239.326C111.687 244.261 100.525 250.271 91.0316 251.539C74.358 253.769 78.2824 231.519 78.2824 231.519L91.5521 224.628L97.186 225.771L103.458 227.04L105.68 227.492C105.68 227.492 106.102 227.332 106.828 227.055C109.164 226.162 114.654 224.054 119.395 222.17C121.837 221.197 124.079 220.282 125.587 219.624C130.928 217.288 136.908 222.948 136.908 222.948L163.341 240.276Z" fill="#2F2E41"/>
<path d="M53.9999 252.071C54.5075 251.954 54.9834 251.728 55.394 251.408C55.8047 251.087 56.1401 250.681 56.3767 250.217C56.6133 249.753 56.7452 249.243 56.7633 248.722C56.7814 248.202 56.6852 247.684 56.4814 247.205L62.18 241.391L59.492 237.067L51.5598 245.389C50.7774 245.785 50.1673 246.454 49.8452 247.269C49.5231 248.085 49.5113 248.99 49.8121 249.814C50.1128 250.637 50.7053 251.322 51.4771 251.738C52.249 252.154 53.1466 252.272 53.9999 252.071L53.9999 252.071Z" fill="#FFB8B8"/>
<path d="M81.6617 193.82C86.5684 193.82 90.546 189.842 90.546 184.936C90.546 180.029 86.5684 176.051 81.6617 176.051C76.755 176.051 72.7773 180.029 72.7773 184.936C72.7773 189.842 76.755 193.82 81.6617 193.82Z" fill="#FFB8B8"/>
<path d="M70.1035 209.597L77.8427 231.539L77.7962 231.615C76.7198 233.395 76.368 234.83 76.779 235.766C76.8873 236.004 77.0458 236.216 77.2438 236.387C77.4418 236.558 77.6744 236.683 77.9257 236.756L96.24 223.954L95.5987 218.824L95.6344 218.766C97.4046 215.934 97.9778 213.369 97.3383 211.143C96.5085 208.254 93.8716 206.943 93.845 206.93L93.7812 206.879L84.6467 195.762L72.436 197.931L70.1035 209.597Z" fill="#CCCCCC"/>
<path d="M58.3345 248.11L53.1499 241.728L65.6482 221.097L71.4753 203.085L71.6561 203.143L71.4753 203.085C71.7936 202.101 72.3192 201.196 73.0166 200.433C73.714 199.669 74.567 199.064 75.5181 198.658C76.4692 198.251 77.4963 198.054 78.5302 198.078C79.5641 198.103 80.5808 198.348 81.5117 198.799C82.4426 199.249 83.2661 199.894 83.9268 200.69C84.5874 201.486 85.0698 202.414 85.3414 203.411C85.613 204.409 85.6676 205.454 85.5014 206.475C85.3352 207.495 84.9521 208.469 84.3779 209.329L73.6802 225.356L58.3345 248.11Z" fill="#CCCCCC"/>
<path d="M94.2791 183.139H80.8058L80.6677 181.204L79.9769 183.139H77.9023L77.6285 179.305L76.2593 183.139H72.2451V182.949C72.2481 180.28 73.3097 177.721 75.197 175.833C77.0843 173.946 79.6432 172.884 82.3123 172.881H84.2118C86.8809 172.884 89.4398 173.946 91.3271 175.833C93.2144 177.721 94.276 180.28 94.2791 182.949V183.139Z" fill="#2F2E41"/>
<path d="M80.6961 195.169C80.5946 195.169 80.4934 195.16 80.3935 195.142L70.5278 193.401V177.096H81.3881L81.1192 177.41C77.3783 181.773 80.1966 188.847 82.2095 192.676C82.3579 192.956 82.424 193.273 82.4004 193.589C82.3767 193.905 82.2641 194.209 82.0757 194.464C81.9179 194.682 81.7105 194.86 81.4707 194.982C81.2309 195.105 80.9654 195.169 80.6961 195.169V195.169Z" fill="#2F2E41"/>
<path d="M223.432 166.656C247.35 166.656 266.74 147.267 266.74 123.348C266.74 99.4297 247.35 80.04 223.432 80.04C199.513 80.04 180.124 99.4297 180.124 123.348C180.124 147.267 199.513 166.656 223.432 166.656Z" fill="#3F3D56"/>
<path d="M212.359 106.514V143.361C212.35 143.532 212.386 143.702 212.466 143.853C212.545 144.004 212.664 144.132 212.809 144.221C212.955 144.311 213.122 144.359 213.293 144.362C213.464 144.364 213.632 144.321 213.78 144.235L242.988 125.812C243.131 125.717 243.248 125.588 243.329 125.436C243.41 125.285 243.452 125.116 243.452 124.944C243.452 124.772 243.41 124.603 243.329 124.451C243.248 124.3 243.131 124.171 242.988 124.075L213.78 105.652C213.633 105.564 213.465 105.518 213.294 105.519C213.123 105.519 212.956 105.566 212.81 105.655C212.664 105.744 212.544 105.871 212.465 106.022C212.386 106.173 212.349 106.344 212.359 106.514V106.514Z" fill="#F2F2F2"/>
</g>
<defs>
<clipPath id="clip0_841_459">
<rect width="291" height="252.167" fill="white"/>
</clipPath>
</defs>
</svg>
